P2
80 80
255
110
110
111
111
110
110
110
111
111
111
111
111
111
110
110
110
110
109
108
109
109
109
108
108
108
109
109
109
110
111
111
111
112
112
112
112
113
111
111
111
111
110
110
110
111
111
111
111
111
111
110
110
109
109
109
108
108
107
106
106
106
106
106
107
108
108
107
108
109
110
110
110
110
110
109
108
108
108
107
107
110
110
110
111
110
109
110
111
111
111
111
111
111
110
110
110
110
109
109
109
109
109
108
108
108
109
109
109
110
112
111
111
111
112
112
112
112
111
111
111
111
110
109
109
111
111
111
111
111
111
110
110
109
109
108
108
108
107
106
107
106
106
106
107
108
108
108
108
109
110
110
110
110
110
109
108
108
108
108
107
108
108
110
111
111
111
111
111
111
112
111
111
111
111
111
110
111
110
110
109
108
108
108
108
108
108
107
109
110
111
111
110
110
111
111
111
111
110
109
109
108
108
106
106
107
109
110
110
110
110
110
110
109
108
108
108
108
107
106
107
107
107
106
107
108
108
108
108
109
109
110
110
110
110
109
107
108
108
108
107
108
107
110
111
111
111
111
111
111
111
112
111
111
111
111
110
111
110
110
109
109
108
108
108
107
108
108
109
111
111
110
110
110
111
111
111
111
110
109
109
108
107
106
106
107
109
109
110
110
110
110
110
109
108
108
108
108
107
107
107
107
107
107
107
108
108
108
108
108
108
110
110
109
110
109
108
108
108
108
107
110
109
111
111
111
110
111
111
111
111
111
111
111
111
111
111
111
111
110
109
109
109
108
108
108
108
108
109
110
110
110
110
110
111
111
109
109
108
108
107
106
106
105
104
106
107
107
109
109
109
109
109
109
108
108
107
107
107
107
107
108
107
107
107
108
108
107
108
109
109
110
110
109
110
109
108
107
107
107
106
110
110
110
111
111
110
111
111
111
111
112
111
111
111
111
111
111
110
110
109
109
108
108
108
107
107
108
108
109
110
109
109
110
111
111
109
108
108
108
107
106
105
103
104
106
106
107
108
109
109
109
109
108
108
108
108
108
107
107
108
108
108
106
107
108
108
108
108
109
110
110
110
109
109
109
107
107
107
106
106
110
110
111
111
111
111
111
111
111
110
110
110
110
111
111
111
111
111
111
110
109
109
109
108
108
110
111
111
111
111
111
111
110
110
109
108
107
107
107
106
105
105
105
106
107
108
108
109
109
108
108
109
108
107
107
107
107
107
107
107
107
107
107
107
108
108
108
109
111
111
111
111
110
111
109
107
106
106
106
105
111
111
111
111
111
111
111
111
111
110
110
110
110
111
112
111
111
111
111
110
109
109
109
109
109
111
112
112
112
112
112
110
110
109
108
107
106
106
106
106
105
105
105
107
107
109
109
109
108
108
107
108
108
107
107
106
107
107
107
107
107
107
107
107
108
107
108
110
111
112
111
111
111
111
109
107
106
106
105
104
111
111
111
111
111
111
111
111
110
110
110
110
110
111
112
111
111
111
111
110
109
109
109
109
110
111
112
112
112
112
112
111
111
109
108
107
106
107
106
106
105
106
106
107
107
108
109
109
108
107
108
108
107
107
107
107
107
107
107
107
107
106
106
106
108
108
108
110
111
111
111
111
111
110
109
107
106
106
105
105
111
111
111
111
111
111
111
111
111
110
110
110
110
111
111
111
111
111
111
110
108
109
109
109
110
111
112
113
112
112
112
111
110
109
109
107
107
106
106
106
106
107
107
107
107
108
109
109
108
108
108
108
107
107
107
107
107
106
106
106
106
105
104
106
108
108
108
109
111
111
111
111
110
110
109
107
106
105
105
104
110
110
111
111
111
111
111
111
110
109
109
110
110
110
111
111
111
111
110
109
109
108
109
109
110
111
112
112
112
112
112
111
110
109
109
107
107
106
107
107
106
107
107
107
108
108
109
109
108
108
108
108
107
107
107
107
107
106
106
106
107
105
105
106
108
108
108
110
111
111
110
110
109
110
109
107
106
105
105
104
110
110
110
111
111
111
111
111
110
108
109
110
110
111
111
111
111
111
110
109
109
108
109
109
110
111
111
111
111
111
111
111
110
108
109
107
106
107
107
107
107
107
107
107
108
108
109
109
108
108
108
108
107
107
107
107
107
106
106
106
106
106
106
107
108
108
108
110
111
111
110
110
109
109
108
107
106
105
105
104
109
109
110
110
110
110
111
111
110
109
109
109
109
110
111
111
111
110
110
109
108
108
108
109
110
111
111
112
111
111
111
110
110
109
109
108
108
108
108
107
107
107
107
107
108
108
109
109
108
108
108
108
107
107
107
107
107
106
106
106
106
106
106
107
108
108
108
109
110
110
110
109
108
109
108
107
106
105
105
105
109
109
109
110
109
110
110
111
110
109
109
108
108
110
111
110
110
110
110
109
108
108
108
109
110
111
112
112
112
111
111
109
109
110
110
109
108
109
109
108
108
108
108
108
108
107
109
109
108
108
108
108
107
106
107
109
108
106
106
106
106
106
106
107
108
107
108
107
109
109
109
109
108
108
107
107
106
105
105
104
108
108
109
109
110
110
110
110
110
109
108
109
109
110
110
110
111
110
109
109
108
108
108
109
110
111
111
111
111
111
111
110
110
110
110
109
109
109
109
108
107
108
108
108
108
108
109
109
108
108
108
108
107
107
107
107
108
106
106
106
106
106
106
107
108
108
107
108
109
109
109
109
108
108
107
107
106
105
105
105
108
107
108
109
109
110
109
109
109
108
108
109
109
109
108
109
111
109
108
108
108
108
108
108
110
110
110
110
111
111
111
111
111
111
111
109
110
109
110
109
109
108
108
109
109
108
109
109
108
108
108
108
107
107
107
107
107
107
107
106
106
106
106
107
108
108
108
108
108
108
108
108
108
108
107
106
106
105
105
105
108
108
108
109
109
110
109
108
108
107
107
108
109
108
109
110
111
109
108
108
107
108
108
108
109
110
110
110
110
111
110
111
111
111
111
110
110
110
110
109
109
109
109
109
109
108
109
108
108
108
108
108
107
107
107
107
107
107
107
106
106
106
106
107
108
108
108
108
108
108
107
107
107
107
107
106
106
105
105
105
107
107
108
108
108
108
108
108
107
107
107
107
108
109
110
111
111
110
109
108
108
108
107
107
107
109
110
110
110
110
110
110
110
111
111
111
111
111
111
110
110
109
110
110
109
109
109
109
108
108
108
108
107
107
107
107
107
106
106
106
106
106
106
107
108
107
108
108
107
107
107
107
106
106
106
105
105
105
105
105
107
107
108
108
108
108
108
107
107
107
107
107
109
109
110
111
111
109
109
108
108
107
107
107
108
109
110
110
110
110
110
110
110
111
111
111
111
111
111
110
110
110
110
109
109
109
109
109
108
108
108
108
107
107
107
107
107
106
106
106
106
106
106
107
108
108
108
108
107
107
107
107
106
106
106
105
105
105
105
105
106
106
106
107
107
107
107
106
106
106
106
107
108
108
109
109
109
109
108
108
107
107
107
107
108
109
108
109
109
109
109
109
111
111
111
111
111
111
111
111
111
110
110
109
109
109
109
109
107
107
107
108
108
108
108
107
107
106
106
106
106
106
107
108
109
109
108
108
107
107
107
106
106
106
106
105
106
105
105
105
106
106
106
107
107
106
106
106
106
106
106
107
108
109
108
109
110
109
108
107
107
107
107
107
109
109
109
109
109
109
109
109
111
111
111
111
111
111
111
111
111
110
110
110
109
109
109
109
108
107
108
108
108
108
108
107
107
106
106
106
106
106
107
108
109
109
108
108
107
107
107
106
106
106
106
105
105
105
105
105
106
106
107
108
107
107
107
106
106
106
106
108
108
108
108
109
109
108
108
107
106
107
107
107
108
109
109
109
109
109
109
109
111
111
112
112
112
112
112
112
111
111
111
110
109
109
109
109
108
108
108
108
107
107
107
107
107
107
107
107
107
107
107
107
108
108
107
107
107
107
106
106
106
105
105
105
106
105
105
105
106
106
107
108
107
107
107
106
106
106
106
108
108
108
108
108
109
108
108
107
107
107
107
107
109
109
109
109
109
109
109
109
111
111
112
112
112
112
112
111
110
111
111
110
109
109
109
109
108
108
108
108
107
106
107
107
107
107
107
107
107
107
106
107
108
107
107
107
107
107
106
106
106
105
105
105
106
105
105
105
107
106
108
109
108
108
107
106
107
107
107
108
108
108
108
109
109
108
108
108
108
108
109
109
110
110
110
110
110
110
109
109
109
109
111
112
112
111
112
111
110
110
112
111
110
110
107
107
106
106
105
105
104
104
104
105
106
106
108
109
109
108
108
107
107
107
107
107
107
107
107
107
106
106
106
106
106
106
106
106
107
107
108
109
109
109
108
106
107
107
107
109
109
109
109
109
109
108
107
108
109
109
109
109
110
111
111
111
110
110
109
109
109
109
111
111
111
111
111
110
110
110
111
112
111
110
107
106
105
105
104
104
104
103
103
105
106
107
107
109
110
109
108
108
107
107
107
107
106
107
107
107
107
107
107
107
107
107
107
107
107
107
109
109
109
108
108
107
107
107
107
108
108
108
108
109
109
109
109
109
110
110
110
111
111
111
111
111
110
110
109
108
108
108
110
111
111
111
111
110
109
110
111
111
111
110
107
106
106
105
105
104
104
103
103
105
106
106
108
109
110
109
109
108
106
107
107
107
107
107
107
107
107
107
107
107
107
107
107
107
107
107
109
110
109
109
108
107
107
107
107
108
108
108
107
109
110
110
110
110
111
111
111
111
111
111
110
111
110
110
109
108
107
108
110
111
111
111
112
110
110
110
111
111
111
110
108
106
105
105
105
104
104
103
104
105
106
106
107
109
110
109
109
108
107
107
107
107
107
107
107
107
107
107
107
107
107
107
107
107
107
107
110
111
110
109
108
107
107
107
106
107
108
108
109
109
110
111
111
111
112
112
111
111
110
110
110
110
109
109
108
106
107
108
110
111
111
111
111
110
109
110
112
111
111
110
108
107
106
105
105
105
105
104
104
105
106
106
107
109
110
109
109
108
106
107
107
107
107
107
107
107
107
107
107
107
107
107
107
107
108
108
110
111
110
110
109
108
108
106
106
106
107
108
110
110
111
111
111
112
112
112
111
111
110
109
110
110
109
108
108
106
107
109
111
111
111
111
110
110
108
110
112
111
111
110
109
107
106
106
106
105
105
104
104
105
106
106
107
109
110
109
109
108
107
107
107
107
107
107
107
107
107
107
107
107
107
107
107
107
108
108
110
111
110
110
109
108
108
106
106
106
107
108
109
110
111
112
112
112
113
113
111
110
109
109
109
109
109
108
108
107
107
108
110
111
111
111
111
110
108
110
111
110
110
110
108
107
106
106
106
105
105
105
105
105
106
107
108
110
110
109
108
107
106
107
107
107
107
107
107
107
107
107
107
107
107
107
107
107
107
108
109
109
109
110
109
108
107
106
106
106
107
108
109
111
112
113
113
113
114
113
111
109
109
108
109
108
108
109
108
107
106
108
110
110
111
111
111
110
108
110
111
110
110
110
108
108
107
106
106
105
105
105
106
106
106
107
109
110
110
108
108
107
107
107
106
107
107
107
107
106
107
107
107
107
107
107
107
107
108
108
110
111
110
111
110
108
107
106
106
107
107
108
109
111
112
113
114
114
114
113
111
110
109
108
108
108
108
109
108
106
107
108
110
110
111
110
110
109
108
109
110
111
110
109
107
107
107
106
106
106
105
105
106
106
107
107
108
109
110
109
108
107
107
107
107
107
107
107
107
106
107
107
106
107
107
107
107
107
109
109
111
111
111
111
111
109
107
106
106
106
107
109
110
111
112
114
115
114
114
114
112
111
109
108
108
108
108
108
107
106
107
108
110
111
111
110
109
109
107
108
110
110
110
110
107
106
106
106
106
106
106
106
106
107
106
107
106
109
110
109
108
107
107
107
108
108
108
108
107
107
107
107
107
107
107
107
107
107
109
109
111
111
111
111
110
109
108
107
107
107
108
109
110
111
112
114
114
114
114
113
112
111
110
109
109
108
108
108
107
106
106
108
109
110
111
110
110
109
107
108
110
110
110
109
107
107
106
106
106
106
106
106
107
108
107
107
107
109
110
109
108
107
106
107
107
108
108
108
107
107
107
107
107
107
107
107
107
107
109
109
111
111
111
111
109
108
108
108
108
109
109
108
110
111
112
113
113
113
113
113
112
111
111
111
109
109
109
108
107
106
106
107
109
109
110
110
110
108
107
108
110
109
109
109
107
107
107
107
106
106
107
108
108
110
109
109
109
110
110
108
108
108
107
107
107
107
108
108
107
107
106
107
107
107
107
107
107
107
109
109
111
112
111
111
110
109
109
108
109
109
109
109
110
110
112
113
113
113
113
113
112
112
111
111
110
109
108
108
107
106
106
107
109
109
110
110
110
108
107
108
110
109
109
109
107
107
107
107
107
107
107
108
108
109
109
109
109
109
110
109
108
107
107
107
107
107
107
108
107
107
107
107
107
107
107
107
107
107
111
111
112
112
111
111
111
110
110
110
110
109
110
111
111
111
111
111
111
112
112
112
112
112
112
112
112
110
109
108
106
106
106
107
108
110
110
109
109
108
107
108
110
109
109
108
107
107
107
107
108
109
109
109
108
108
109
109
109
109
110
108
107
107
107
107
107
107
107
107
107
107
107
107
107
106
107
107
107
107
111
111
112
112
112
111
111
110
110
110
110
110
110
111
111
111
111
111
111
111
112
112
112
112
112
112
112
110
109
108
107
106
106
107
109
110
109
109
109
107
106
108
110
109
109
108
107
107
107
107
108
109
109
109
109
109
109
109
109
110
110
108
108
107
107
107
107
107
107
107
107
107
107
107
107
106
107
106
107
107
110
110
111
111
111
111
110
110
110
110
110
111
111
110
111
111
111
111
111
111
111
111
112
112
113
114
112
110
108
107
106
106
106
107
108
110
111
109
108
108
106
107
109
109
109
108
107
107
107
107
108
109
109
109
109
110
110
110
110
109
110
108
107
107
107
107
107
107
106
107
107
107
107
107
107
107
107
107
107
107
109
110
111
111
110
110
110
109
110
110
109
110
111
110
111
110
110
110
110
111
111
111
112
112
113
114
112
110
108
106
107
106
106
107
109
111
111
109
108
108
107
107
109
108
109
109
107
107
107
106
108
109
109
109
109
109
110
110
110
109
110
109
107
107
107
107
107
107
107
107
107
107
107
107
107
107
107
107
107
107
110
110
109
110
109
109
108
107
107
107
109
110
110
110
110
109
109
109
108
109
110
110
110
110
111
110
110
110
109
110
109
109
108
109
109
109
109
108
108
107
107
107
107
107
108
108
108
108
108
108
108
109
108
108
108
109
109
109
109
109
109
109
109
108
108
108
107
107
108
108
107
107
107
107
106
106
106
106
106
106
110
110
109
110
109
109
108
107
107
107
109
110
110
110
109
109
108
109
108
109
110
110
110
109
110
110
110
109
110
110
109
109
109
108
109
109
109
108
108
107
107
107
106
106
108
108
108
108
108
108
108
109
108
108
108
109
109
109
109
109
109
109
109
109
109
108
108
108
108
108
107
107
107
107
107
106
106
106
106
106
109
109
109
110
109
109
108
107
108
109
111
111
111
109
110
109
109
109
108
109
110
110
110
110
110
110
109
109
109
110
109
108
108
109
109
108
108
108
107
107
107
106
107
107
107
107
108
108
108
108
108
108
108
108
108
109
109
109
109
109
109
109
109
109
109
108
107
108
108
108
107
107
106
106
106
106
106
106
106
106
109
109
110
110
109
109
109
108
108
109
111
111
111
110
110
110
110
109
109
109
110
109
110
110
109
109
109
108
109
110
109
109
109
109
109
108
108
107
108
107
107
107
107
107
106
107
108
108
108
108
107
108
108
108
108
109
109
109
109
109
109
109
109
109
109
108
107
108
108
108
107
107
106
106
106
106
106
106
106
106
108
108
109
110
109
109
109
109
109
109
109
109
109
109
109
109
110
110
109
110
110
109
109
109
109
109
109
109
109
109
109
108
109
109
109
108
108
108
108
107
107
106
107
107
108
108
108
108
108
109
109
109
108
108
108
108
108
108
108
108
108
108
108
108
109
108
108
108
108
108
106
106
107
106
106
106
106
106
106
106
108
108
109
110
110
109
110
110
110
109
109
109
109
109
109
109
110
110
110
110
109
110
109
109
109
109
109
109
109
110
109
109
109
109
109
108
108
108
108
107
107
107
107
107
108
108
108
108
109
109
108
109
109
108
108
108
107
108
108
108
107
108
107
108
109
108
108
108
108
108
107
107
107
107
107
106
106
106
106
106
107
107
109
109
109
109
109
110
109
109
109
109
109
109
109
110
111
110
110
110
110
110
108
109
109
109
108
108
109
110
110
109
109
109
108
108
108
108
108
107
107
107
107
107
108
108
108
109
109
109
109
109
109
108
108
108
108
108
108
108
108
108
108
108
108
108
108
108
108
108
107
107
107
107
106
106
106
106
106
106
107
107
108
109
108
108
109
109
109
109
109
109
109
109
108
110
111
111
111
111
110
110
109
109
108
109
108
108
108
110
109
108
109
108
108
108
108
108
108
107
107
107
107
107
108
108
108
109
109
109
108
108
109
108
108
108
108
108
108
108
108
108
107
108
108
107
108
108
108
108
107
107
107
107
107
106
106
106
106
106
106
106
107
109
108
108
110
111
110
109
108
109
109
109
108
110
111
111
111
111
111
111
109
109
109
109
109
108
109
110
109
109
108
109
109
107
107
108
108
107
107
107
107
106
107
108
109
109
109
110
109
109
109
108
108
108
108
107
107
107
107
108
108
108
108
108
107
107
108
108
107
107
107
107
107
106
106
106
106
106
106
106
107
108
108
108
110
111
110
109
109
109
109
109
108
109
110
112
112
111
111
110
109
109
109
109
109
109
109
110
110
109
108
109
108
107
107
107
108
107
107
107
107
106
107
109
109
109
110
110
109
110
109
108
108
108
108
107
107
107
107
107
108
108
109
108
106
107
108
108
107
107
107
107
106
106
106
106
106
106
106
106
106
107
107
108
109
110
109
108
108
108
108
108
109
110
111
111
111
111
111
110
109
108
108
108
108
108
110
110
110
109
109
109
108
107
107
108
108
108
107
107
107
107
108
109
110
110
110
109
110
110
109
108
108
108
108
107
106
107
107
107
107
108
109
108
107
107
108
108
107
107
107
107
107
106
106
106
106
106
105
106
105
106
107
108
109
109
108
108
108
108
108
108
109
111
112
111
112
111
111
111
110
108
106
107
106
108
109
110
109
109
109
109
109
108
108
108
108
107
107
107
107
107
108
109
111
111
110
109
109
110
109
108
108
108
107
106
106
107
107
107
107
108
108
108
108
108
108
108
107
106
107
107
106
106
107
106
106
106
104
105
105
106
107
107
108
108
108
107
107
107
107
107
109
111
112
112
112
112
111
111
110
108
107
107
107
108
109
110
109
109
109
109
109
108
107
108
108
107
107
107
107
107
108
109
111
111
110
110
110
110
109
108
108
108
108
106
106
106
107
107
107
108
109
108
108
108
108
108
107
106
106
107
106
106
106
106
106
106
103
103
104
106
106
106
107
107
107
107
107
106
106
107
109
111
112
112
113
112
111
111
109
108
107
106
106
108
110
110
110
109
109
109
109
107
106
107
108
107
107
107
107
107
108
110
111
112
111
111
110
110
109
108
108
109
109
107
106
107
106
106
107
109
109
109
108
108
109
109
107
106
107
107
106
106
106
106
106
106
103
103
104
105
105
106
107
108
108
107
107
106
106
107
109
111
111
112
112
112
111
111
110
108
107
107
107
108
109
110
110
109
109
108
108
107
107
108
108
107
107
107
107
108
108
110
111
112
111
111
110
109
109
108
108
108
108
106
106
106
106
106
107
108
109
109
108
108
108
108
107
106
107
107
106
106
106
106
106
106
103
103
104
104
104
105
107
108
108
107
107
107
107
107
109
110
111
111
111
111
112
111
110
110
108
108
108
108
109
110
109
109
109
109
109
108
108
108
108
107
107
106
107
109
109
110
111
111
111
111
110
110
109
108
108
108
107
106
106
106
106
106
106
108
109
109
109
109
108
108
107
107
107
107
107
106
106
106
106
106
104
104
105
105
105
106
107
108
107
107
107
107
107
108
109
111
111
111
111
111
111
111
110
110
109
109
108
108
109
110
109
108
108
108
108
108
107
107
107
107
107
107
108
109
109
110
111
111
110
111
110
110
109
108
108
108
108
106
107
106
106
106
107
108
109
109
109
109
108
108
107
107
106
106
106
106
106
107
107
107
105
105
106
106
106
107
107
108
108
108
108
109
109
108
108
110
111
111
110
110
110
110
110
110
111
111
111
111
110
110
108
107
107
107
106
104
104
104
105
106
107
108
109
111
111
111
111
111
110
110
109
110
109
108
108
108
108
107
107
107
107
107
107
107
108
110
110
110
109
108
107
106
106
105
105
105
106
108
108
108
105
105
106
106
106
106
107
108
108
108
108
109
109
108
107
110
111
110
109
110
110
110
110
110
111
111
111
111
110
110
109
107
107
106
106
104
104
104
105
106
107
108
110
111
110
110
110
110
109
109
109
110
109
108
108
108
108
107
107
107
107
107
106
107
108
110
110
110
109
109
107
106
106
105
105
105
107
108
108
108
105
105
106
107
107
106
107
108
108
108
108
109
109
109
109
109
110
109
109
109
110
110
110
110
110
110
110
110
110
110
109
107
106
105
105
104
104
104
106
107
107
109
110
110
110
110
109
109
109
109
108
109
108
108
108
108
108
108
108
108
108
108
108
108
109
109
110
110
109
109
107
105
105
104
104
105
107
108
108
107
105
105
106
107
107
107
107
108
108
108
108
109
109
109
109
109
110
109
109
109
110
110
110
110
110
110
110
110
109
110
109
108
106
105
105
105
104
104
105
106
107
108
110
110
110
109
109
109
109
109
108
109
108
108
108
108
108
108
108
108
108
108
108
108
109
109
110
110
109
109
107
106
104
104
104
105
107
108
108
107
105
105
107
108
107
107
107
108
108
108
108
109
109
109
109
109
109
108
109
109
109
109
109
109
109
110
109
109
108
109
108
106
106
106
106
105
105
105
105
106
107
108
109
109
109
108
108
108
108
108
108
108
108
108
108
109
109
108
108
109
109
109
109
109
109
109
109
109
108
108
107
105
103
103
103
105
107
108
108
107
105
105
107
108
107
106
107
108
108
108
108
109
109
109
109
109
109
108
109
109
109
109
109
109
109
110
109
108
108
108
108
106
106
106
106
105
105
105
105
106
107
108
109
109
109
108
108
108
108
108
108
108
108
107
108
109
109
108
108
108
109
109
109
109
109
109
109
109
108
108
107
105
103
103
104
105
107
108
108
107
105
105
106
107
107
106
107
108
108
109
109
109
110
108
108
109
109
109
109
108
108
108
108
108
108
108
108
108
108
109
108
107
107
107
106
105
105
106
106
106
107
108
109
109
108
108
107
107
107
107
108
108
108
108
108
109
109
109
109
109
110
109
110
110
109
109
108
108
107
107
106
105
105
105
104
105
106
107
107
106
105
105
106
107
107
106
107
108
108
109
109
110
110
109
108
108
109
109
109
108
108
108
108
108
108
108
108
107
108
109
108
107
107
106
106
105
105
106
107
106
107
108
109
108
108
108
107
106
107
107
107
108
108
108
109
110
110
110
110
110
110
110
110
109
109
109
108
108
107
107
105
105
105
105
105
105
106
107
107
106
105
105
106
107
107
107
107
108
108
109
109
110
110
109
108
109
109
109
109
108
108
107
107
107
107
107
107
107
108
108
108
107
107
106
107
106
106
106
107
107
106
107
108
108
107
107
107
107
107
108
107
108
108
108
108
110
109
110
109
109
109
110
110
109
109
109
108
107
106
105
105
105
105
105
105
105
106
106
106
106
105
105
106
107
107
106
107
108
108
109
109
110
110
109
109
108
109
109
109
108
108
107
107
107
107
107
107
107
107
108
107
107
107
107
107
106
107
107
107
107
107
107
108
107
107
107
107
107
108
108
108
108
108
108
108
110
110
110
110
110
110
110
110
109
109
109
108
107
106
105
105
105
105
105
105
105
106
106
106
106
105
105
106
107
107
107
107
108
108
109
109
110
110
108
108
108
108
108
109
108
107
107
106
106
106
106
106
107
108
108
108
108
107
107
107
106
107
107
107
107
107
107
108
108
107
108
107
107
108
108
108
108
108
108
108
109
109
108
108
109
109
110
110
109
109
109
107
106
105
104
104
105
105
106
106
105
105
106
105
105
105
105
106
107
107
107
107
108
108
109
109
109
109
108
107
108
108
108
108
107
107
107
105
105
105
105
106
107
108
108
108
108
107
107
107
107
106
107
107
107
106
107
108
108
108
108
108
108
108
108
108
108
108
108
108
109
109
108
107
108
109
109
109
109
109
108
107
105
104
104
104
104
106
107
106
105
105
105
105
104
105
105
106
107
107
107
107
108
108
108
109
110
110
109
108
108
109
108
107
107
106
106
105
105
105
105
105
107
107
107
108
107
107
107
107
108
107
108
107
107
107
107
107
107
108
108
108
108
108
108
108
108
108
108
108
108
108
108
108
108
108
108
109
109
109
108
106
104
104
103
104
104
106
107
106
105
105
105
105
104
105
105
106
107
107
106
107
108
108
108
109
111
111
109
108
109
109
108
107
107
106
106
105
105
105
104
105
106
107
107
107
107
107
108
108
108
108
108
107
107
107
107
107
107
107
107
108
109
109
109
108
108
108
108
108
108
107
108
108
108
108
108
108
108
108
107
104
104
103
103
103
105
106
106
106
105
105
104
104
103
105
105
106
107
107
107
107
107
107
108
110
110
110
109
109
109
108
107
107
106
106
106
105
105
104
104
104
106
107
107
107
107
107
108
108
107
107
108
108
107
107
107
107
108
108
108
109
109
109
109
109
109
108
108
108
108
108
107
107
107
107
108
108
108
108
107
104
104
103
103
104
104
105
106
106
105
105
104
104
103
106
106
106
106
107
107
107
106
107
108
110
110
110
109
109
108
108
107
107
106
105
105
104
105
105
104
104
105
107
107
107
106
107
108
108
107
106
107
108
108
108
108
108
108
109
109
110
110
110
110
109
110
110
109
109
108
108
107
107
106
106
107
108
108
109
107
104
104
103
103
104
104
105
105
105
105
105
104
104
103
104
105
106
106
106
106
107
107
106
107
108
108
108
108
108
108
107
107
107
106
105
104
104
104
104
104
104
105
107
107
107
107
107
107
107
107
106
107
108
107
108
108
108
108
108
108
109
109
109
109
110
110
109
109
109
109
108
107
107
107
107
107
108
107
107
106
105
105
105
105
105
105
105
105
105
105
105
105
104
104
103
103
105
105
105
105
105
106
106
105
105
105
105
106
107
108
108
107
107
105
103
103
103
103
103
105
105
106
108
108
107
107
106
106
106
106
106
107
107
107
108
109
110
109
108
108
106
106
107
108
109
109
110
110
110
110
110
109
109
108
108
107
106
106
105
105
106
107
107
107
107
106
106
105
104
104
104
104
104
105
103
104
105
105
105
105
105
106
106
105
105
105
105
106
107
107
108
107
106
104
103
103
103
103
104
105
106
106
108
108
108
107
107
106
106
106
106
106
107
107
108
109
110
109
108
108
107
107
107
108
109
110
110
109
109
110
110
108
109
108
108
107
106
106
105
105
106
106
107
107
106
106
105
105
105
104
104
104
105
105
104
104
105
105
105
106
105
106
105
105
105
104
104
106
107
107
107
105
104
104
103
103
103
103
105
106
108
108
108
108
107
106
106
106
106
105
105
106
107
107
108
109
110
109
106
106
107
107
107
109
109
110
109
109
109
110
109
109
109
109
109
107
106
106
105
106
106
107
107
107
106
105
104
103
103
102
103
104
106
106
104
104
105
105
105
105
105
105
105
105
105
105
104
106
107
106
107
105
103
104
103
103
103
104
105
107
107
108
107
107
107
106
106
106
106
106
105
106
107
107
107
109
110
109
107
107
107
107
107
108
109
110
109
109
109
110
109
109
109
108
109
107
106
105
105
105
106
106
107
107
105
105
104
103
103
103
103
104
106
106
104
104
105
105
105
105
105
106
105
105
105
107
107
106
106
106
105
104
103
103
103
103
103
105
107
108
108
108
107
107
107
106
106
106
106
106
106
107
108
108
108
109
110
110
109
109
107
107
107
106
108
110
110
110
110
109
109
108
108
107
107
106
105
105
104
105
105
105
105
105
104
104
103
103
103
103
103
104
105
107
104
104
105
105
105
105
105
105
105
105
105
107
107
106
106
105
105
104
103
103
103
103
103
105
108
108
108
108
107
107
106
106
106
106
106
106
106
107
108
108
108
108
110
110
109
109
107
107
107
107
108
110
110
110
109
108
108
108
108
107
107
106
105
105
104
105
105
105
105
105
104
103
103
103
103
102
103
104
105
107
