P2
80 80
255
150
150
150
151
150
150
150
151
151
151
151
152
152
152
152
154
154
154
154
154
154
154
154
154
154
153
152
152
151
150
151
152
153
154
154
154
154
153
153
154
155
157
159
158
156
154
153
152
152
154
154
155
157
157
157
157
157
155
155
155
155
154
153
154
155
155
155
155
153
152
151
150
152
153
155
157
156
155
155
154
150
150
151
151
151
150
151
151
151
151
151
152
152
152
152
154
154
154
154
154
154
154
154
154
153
153
152
152
151
150
151
152
154
154
154
154
154
154
153
154
155
157
159
158
156
154
153
152
152
154
154
155
157
157
157
157
157
155
155
155
154
154
153
154
155
154
155
155
153
152
150
150
152
153
156
157
156
155
155
154
150
150
151
151
151
151
151
152
152
152
151
151
151
151
151
152
153
153
153
153
153
153
151
151
151
151
150
149
150
150
150
151
152
152
153
152
152
153
153
154
154
157
158
158
156
155
152
152
152
154
155
156
156
156
156
155
154
153
151
151
151
151
150
151
153
154
154
154
152
152
151
150
152
154
156
157
157
157
156
155
150
150
151
151
151
151
151
152
152
152
152
151
151
151
151
152
152
152
152
152
152
152
151
150
150
150
149
149
149
149
151
151
152
152
152
152
152
153
153
153
154
156
159
158
157
155
152
152
152
153
156
157
156
157
156
155
154
152
150
150
150
150
150
150
152
154
154
153
152
151
151
150
152
154
156
157
157
157
157
155
150
150
151
152
152
152
153
153
153
152
152
151
151
151
151
151
152
152
152
151
151
151
149
149
148
148
147
148
148
150
150
150
152
152
152
152
152
151
153
154
155
158
159
159
157
155
154
153
154
154
155
155
155
155
155
154
152
150
148
148
148
147
147
148
151
152
152
152
152
152
151
150
152
154
156
157
158
158
157
156
150
150
152
153
152
152
153
153
153
152
151
151
150
150
150
151
152
152
152
151
150
150
148
148
147
147
147
147
148
150
150
150
152
152
152
152
151
151
153
155
156
158
159
159
158
156
155
154
154
155
155
156
155
154
154
154
152
150
148
147
148
147
146
147
150
152
152
151
152
152
151
150
152
155
156
157
158
158
158
156
149
149
149
149
151
152
154
156
155
154
154
153
153
153
153
154
154
154
154
153
153
152
150
150
149
149
148
148
148
149
151
151
153
154
153
154
153
153
154
155
157
159
160
160
158
158
156
155
155
154
153
152
151
152
151
150
150
150
149
149
148
148
148
148
149
150
150
150
151
152
151
152
153
154
156
157
157
157
157
157
149
149
148
147
149
151
154
156
156
157
156
154
154
155
156
156
155
155
154
154
154
153
151
151
150
150
149
147
147
148
150
152
154
154
155
155
154
154
154
155
157
159
161
160
159
159
157
155
155
154
152
151
150
150
150
149
149
149
149
150
149
149
150
149
149
149
150
150
150
152
152
153
154
154
156
157
157
156
157
158
149
149
149
149
151
153
156
158
158
158
158
155
156
156
156
156
156
156
155
154
153
153
151
151
150
150
149
149
149
150
151
152
154
155
155
155
155
155
155
155
157
158
160
160
160
160
160
157
156
155
154
152
151
150
149
148
148
148
148
148
148
148
148
149
149
149
149
149
150
151
152
153
154
154
155
156
157
157
157
157
149
149
149
150
151
154
158
160
160
159
159
157
156
157
157
157
157
156
155
154
154
153
152
151
150
149
150
149
150
151
152
153
154
156
156
155
155
156
156
156
157
158
159
161
161
161
161
159
157
156
154
152
151
149
147
147
147
148
148
148
148
148
148
149
149
149
149
149
150
152
151
153
153
154
154
155
156
157
157
156
150
150
150
151
153
155
158
160
159
159
159
157
157
157
157
158
158
156
155
155
154
153
152
151
150
149
150
150
150
151
153
154
155
156
156
155
155
156
156
156
157
158
158
160
161
161
161
160
159
156
154
153
151
149
148
147
147
147
147
147
147
147
147
149
149
149
149
150
150
152
152
153
153
154
155
155
156
157
156
155
150
150
151
153
155
156
159
161
161
159
159
158
158
157
156
158
158
157
157
156
155
153
152
151
150
150
150
151
152
153
154
154
155
156
156
155
155
156
157
157
157
158
158
159
161
163
162
163
160
157
155
154
151
149
148
147
147
146
146
146
146
146
146
149
150
149
150
150
151
152
152
153
153
154
155
155
155
157
156
155
150
150
151
153
154
155
158
160
159
159
159
158
158
157
158
158
158
157
156
156
155
153
152
151
150
150
149
151
152
153
154
154
154
156
156
155
155
156
156
156
157
157
158
159
160
162
162
162
160
157
156
153
152
150
148
147
147
146
146
146
146
146
147
149
150
149
150
150
151
152
152
153
154
154
155
155
155
156
155
155
151
151
151
153
154
154
156
158
158
158
158
159
158
159
158
158
158
157
156
156
155
154
152
150
150
150
150
150
153
154
154
153
153
155
155
155
155
156
156
156
156
156
157
159
159
161
162
162
159
157
155
154
152
150
149
147
147
146
146
147
147
148
148
148
149
149
149
151
151
152
152
153
154
154
154
154
154
155
155
154
150
150
151
152
153
154
155
157
157
157
158
158
158
158
158
158
158
157
156
156
154
154
152
151
151
150
150
151
152
153
153
153
154
155
154
155
155
156
156
156
156
156
157
158
158
160
161
161
159
157
155
154
152
150
149
148
148
147
147
148
148
148
149
149
150
149
150
151
151
152
152
153
154
154
154
154
154
154
155
154
150
150
150
151
151
152
151
152
153
155
157
157
157
157
157
157
158
157
157
156
155
154
152
152
152
152
151
150
151
152
152
153
153
154
154
153
154
156
157
156
156
156
156
156
157
159
159
159
158
156
154
154
151
150
150
149
149
149
149
150
151
151
151
150
151
151
150
151
152
152
152
152
154
155
154
153
153
154
154
154
150
150
150
151
151
152
151
152
153
154
156
156
156
156
156
157
157
156
156
155
154
154
152
152
152
152
151
150
151
152
152
152
152
153
153
154
154
155
156
156
156
156
156
156
157
158
158
159
157
155
154
153
151
150
150
149
149
150
150
151
151
151
151
151
151
151
151
151
152
152
152
152
154
155
154
154
154
154
154
153
150
150
150
151
151
151
151
150
150
151
152
154
154
155
154
155
155
154
155
154
154
154
152
152
152
152
151
150
150
150
150
150
150
150
152
152
153
154
156
156
156
156
155
155
156
156
157
157
156
155
154
153
151
150
150
150
150
151
152
152
152
152
152
152
151
151
152
152
152
152
152
152
153
153
154
154
154
154
154
153
150
150
150
151
151
151
150
150
150
151
152
154
154
154
154
154
155
155
154
154
154
153
152
152
152
152
151
150
150
150
150
149
149
150
151
152
153
154
156
156
157
156
154
155
156
156
157
157
156
155
154
152
151
150
150
150
150
151
152
152
152
152
152
152
151
152
152
152
152
152
152
152
153
153
154
153
154
154
154
153
152
152
153
153
153
153
152
151
150
150
150
151
152
153
153
153
153
153
154
154
153
153
152
152
152
152
151
149
147
147
147
147
147
148
149
150
151
153
155
155
155
154
154
154
154
156
157
157
157
155
154
153
151
151
151
152
152
152
152
154
155
153
152
152
152
152
152
152
152
152
152
152
153
153
153
152
153
154
154
152
152
152
153
153
153
154
152
150
150
150
150
150
152
152
152
153
154
153
154
154
153
153
152
152
152
152
151
149
147
147
147
148
147
148
149
150
151
153
155
155
155
155
154
154
154
156
157
157
157
155
154
152
151
151
151
152
152
152
152
153
155
153
152
153
152
152
152
152
152
152
152
152
153
154
153
152
153
154
154
152
152
152
154
155
155
155
155
153
151
151
151
150
150
150
150
152
152
152
151
152
154
153
152
152
152
152
151
148
147
146
146
145
145
146
148
150
152
153
155
155
155
154
154
154
155
157
158
158
158
155
154
153
152
152
152
150
150
150
152
153
153
153
153
153
153
153
152
152
152
152
153
152
152
152
152
152
153
154
153
152
152
152
154
155
155
155
155
154
152
151
151
150
150
150
150
151
152
152
151
152
153
153
152
152
152
152
151
148
147
146
146
145
145
146
148
150
151
153
155
155
155
155
154
154
156
157
159
158
157
155
154
153
152
152
151
150
150
150
152
153
153
153
154
154
154
153
152
152
152
152
152
152
152
152
152
152
153
154
154
152
152
152
152
153
153
153
154
154
153
153
153
151
152
151
150
150
150
150
150
152
154
154
153
153
152
152
151
151
150
151
150
149
150
151
153
153
155
156
156
156
155
155
155
155
155
157
158
158
158
158
157
156
155
154
152
151
150
151
151
152
153
154
155
156
156
155
154
155
153
153
153
152
153
153
153
153
153
153
153
153
152
152
152
152
152
152
153
154
154
154
154
152
153
151
150
150
150
150
150
152
153
153
153
153
152
152
152
152
152
152
151
151
151
153
155
155
156
156
156
156
155
155
155
155
155
156
158
158
158
158
157
157
157
155
153
150
151
150
151
152
154
154
155
156
156
156
155
155
154
153
152
152
152
152
152
152
152
153
153
152
151
151
151
153
152
153
154
155
156
156
155
154
153
151
151
151
150
150
151
153
154
153
152
153
153
152
151
151
152
152
152
151
151
152
153
153
153
153
154
155
154
154
155
156
156
157
158
158
158
158
157
156
155
153
152
150
150
151
152
153
154
155
155
156
156
156
155
155
153
153
152
152
152
152
152
152
153
153
153
153
150
150
151
153
153
153
154
155
157
156
156
155
154
152
151
151
150
150
151
153
154
153
152
152
152
152
152
151
152
152
152
152
152
152
152
152
151
152
153
154
154
154
154
156
156
158
158
159
158
158
157
156
154
153
151
150
151
151
152
153
154
155
155
156
157
156
155
155
153
153
153
152
152
152
152
152
152
153
153
153
151
151
153
154
154
154
154
155
157
157
157
156
156
154
152
151
151
151
151
152
153
153
152
152
152
152
152
152
153
153
153
152
152
151
150
151
151
151
153
154
153
154
155
156
156
158
158
159
158
157
156
155
153
152
152
150
151
151
152
154
155
155
155
156
156
155
155
154
153
153
152
152
152
152
152
152
152
153
153
153
152
152
154
155
154
154
154
156
157
158
158
157
157
155
153
152
151
152
151
152
152
152
152
152
152
152
152
152
153
154
153
151
151
150
150
150
150
151
153
153
153
154
155
156
156
157
158
159
158
157
155
154
153
152
151
150
151
151
152
155
154
155
155
156
157
156
154
154
152
152
152
152
152
152
152
152
153
153
153
153
152
152
153
154
154
154
156
157
158
158
158
158
158
156
154
152
152
152
152
152
154
154
153
153
153
153
152
153
154
155
154
153
152
150
150
149
149
151
152
153
154
155
155
156
157
158
159
159
158
156
155
154
152
151
151
150
151
152
153
155
156
155
156
155
155
155
153
153
152
152
152
152
152
152
152
152
152
153
153
153
151
152
152
153
154
155
157
158
159
158
158
158
159
157
155
153
152
152
151
152
154
154
153
153
153
152
152
151
154
156
156
155
153
150
150
149
149
150
152
153
154
155
156
157
157
159
159
159
157
155
154
152
151
151
150
150
150
153
154
156
156
156
157
155
154
153
152
152
152
152
152
152
152
153
153
152
153
153
153
153
152
152
153
154
155
156
157
158
159
159
159
160
159
157
155
154
152
152
151
152
154
154
154
154
153
153
153
153
156
157
157
156
155
151
150
149
149
151
152
154
156
156
156
157
157
158
158
159
157
155
154
153
151
151
151
151
152
153
154
156
157
156
156
155
154
153
152
152
152
152
151
151
152
152
152
152
153
153
153
153
153
153
154
156
156
157
158
159
160
161
161
161
161
157
155
155
153
152
152
151
153
154
154
154
154
154
154
155
157
159
159
158
157
154
152
150
150
152
154
156
157
158
158
158
158
158
158
158
156
155
154
153
151
150
151
152
153
153
155
156
157
156
155
154
153
153
152
152
152
152
150
150
151
152
151
152
154
154
154
154
152
152
154
156
156
158
158
158
160
161
160
161
161
158
155
154
153
152
151
152
153
154
154
154
155
155
155
156
158
159
159
159
158
155
153
151
150
152
154
156
157
158
157
157
157
157
157
157
156
155
154
153
151
151
151
153
154
154
155
156
156
155
154
154
153
152
152
152
151
151
150
150
151
152
152
152
153
154
155
155
152
152
154
156
156
158
158
159
161
161
161
162
161
159
157
155
153
151
151
152
154
155
155
155
156
156
156
157
160
161
161
161
160
158
156
152
151
152
154
156
158
157
156
157
156
156
156
157
155
154
154
153
153
152
153
155
155
155
155
155
155
154
154
153
152
151
150
150
151
151
150
150
151
152
151
152
153
154
155
156
153
153
153
156
157
158
159
159
161
161
162
162
160
158
156
154
153
152
151
152
154
155
155
155
156
156
156
156
158
160
160
161
160
158
156
152
152
153
155
157
158
158
157
156
155
155
156
156
154
153
153
154
153
153
154
156
156
156
155
155
154
153
153
152
152
151
150
150
151
150
150
150
151
152
152
152
153
153
155
156
154
154
155
156
158
159
159
160
162
162
162
161
159
157
155
153
152
152
152
153
154
155
156
158
158
158
156
154
156
158
159
160
160
158
156
152
152
153
156
158
159
157
154
153
152
153
154
154
153
152
152
153
154
155
156
158
158
157
155
154
153
152
151
151
152
151
150
150
150
150
150
150
150
152
152
152
153
154
155
155
154
154
155
156
157
159
159
160
162
162
162
161
159
157
155
153
152
152
152
153
154
155
156
158
158
158
156
155
155
157
159
160
160
157
156
152
151
153
156
157
159
157
154
153
152
152
154
154
153
152
152
153
154
155
157
158
158
157
155
154
153
152
152
152
152
151
151
150
150
150
150
150
150
152
152
153
153
154
155
155
154
154
156
158
158
159
161
162
162
162
162
161
160
156
155
153
152
152
152
153
155
156
157
158
159
160
157
155
156
156
157
159
158
155
154
152
151
153
155
157
158
155
153
151
150
151
152
152
152
152
153
154
156
157
158
159
159
158
156
155
153
151
151
151
150
150
150
150
150
150
150
150
151
152
152
152
153
153
153
154
155
154
156
158
159
160
162
162
162
163
162
161
159
156
154
153
152
152
152
153
155
156
157
158
159
160
157
156
156
156
157
158
158
155
153
151
151
153
155
156
157
156
153
152
151
151
152
152
152
153
153
154
156
157
158
159
159
158
156
155
153
152
152
151
151
150
150
150
151
150
151
150
151
152
152
152
152
153
153
154
157
157
158
160
161
162
163
163
162
162
163
160
159
157
154
153
153
153
154
154
155
157
157
157
158
158
158
158
157
157
157
155
154
152
150
148
148
150
151
152
153
155
156
155
155
154
152
152
152
152
152
153
154
155
158
158
158
157
157
155
155
155
155
155
156
155
153
153
152
152
150
150
150
150
151
151
151
152
152
152
158
158
159
161
162
163
164
163
163
162
162
160
159
157
155
153
153
153
154
154
155
157
157
157
157
158
158
158
157
157
156
155
153
151
150
148
148
149
151
152
153
155
156
156
155
154
153
152
152
152
152
153
155
155
157
158
158
157
157
155
155
155
155
156
156
156
154
153
153
152
151
150
150
150
150
151
151
152
152
152
158
158
159
161
161
162
163
163
163
162
162
161
159
157
155
154
153
153
154
155
157
158
158
158
158
159
158
158
158
157
156
154
153
152
149
149
149
149
151
152
153
155
157
157
156
154
153
152
152
151
152
154
154
155
157
158
158
157
157
155
155
155
156
157
158
157
156
154
154
153
152
151
152
152
151
151
151
151
151
151
158
158
159
160
161
162
163
164
163
162
162
161
159
157
155
154
153
153
154
156
157
158
158
158
158
159
158
158
158
157
156
154
152
151
150
149
149
150
151
152
153
155
157
157
156
154
153
152
152
152
152
154
154
154
157
158
158
157
157
155
154
155
156
158
158
158
156
154
154
154
152
152
151
152
151
150
151
151
151
151
157
157
158
160
160
161
162
162
162
161
161
160
160
158
156
155
154
155
155
155
157
158
158
158
158
159
159
158
158
156
155
154
152
152
151
151
150
150
151
152
153
155
157
156
155
154
153
152
152
152
152
153
154
155
157
158
158
157
157
155
154
155
157
158
159
158
156
155
154
154
153
152
152
152
151
150
151
151
151
151
157
157
158
160
159
160
162
163
162
161
161
160
160
158
156
155
154
155
154
155
157
159
158
158
158
158
158
158
157
156
155
154
152
152
152
151
151
150
152
152
153
155
157
156
154
154
153
152
152
152
152
153
154
155
157
158
158
157
157
155
154
156
157
158
158
158
157
155
154
154
153
153
152
152
151
151
151
151
151
151
155
156
157
159
158
160
161
161
161
161
161
160
159
158
157
155
155
154
155
157
158
159
159
159
159
158
158
157
157
156
155
154
153
153
153
152
152
152
153
153
154
155
157
156
154
154
153
152
152
152
152
153
154
155
157
158
158
157
157
155
155
156
157
159
160
159
157
156
156
154
153
152
152
152
151
150
151
151
151
151
155
155
156
158
159
160
160
160
160
161
162
161
158
158
156
155
155
155
156
157
158
159
159
159
159
158
158
157
156
156
156
154
154
154
154
153
152
153
154
153
154
156
157
156
154
154
153
152
152
152
152
153
154
155
157
158
158
157
157
155
155
155
157
159
160
159
158
157
157
154
153
152
152
152
151
150
151
151
151
151
154
154
155
157
157
158
159
160
160
160
160
159
158
157
156
155
155
155
156
157
159
159
158
159
158
158
157
156
156
155
155
155
154
153
153
153
153
154
154
154
154
155
155
155
154
154
153
153
152
152
152
153
154
155
156
158
158
157
157
155
155
155
156
158
158
158
157
156
155
154
153
152
152
152
151
150
151
151
151
151
153
153
155
156
156
156
158
160
159
159
159
158
159
157
156
155
155
155
156
158
159
158
158
158
158
158
157
156
155
154
155
155
155
153
154
154
154
154
155
155
155
155
155
154
153
153
153
153
152
151
152
153
154
155
157
158
158
157
157
155
155
154
156
158
158
158
156
156
154
155
153
152
152
152
151
151
151
151
151
151
153
153
154
156
157
157
159
159
159
159
158
158
158
156
155
155
155
155
155
157
159
158
157
158
157
158
156
155
155
155
155
155
155
155
155
155
155
155
156
155
155
155
155
155
154
153
153
153
152
151
152
153
154
155
157
158
158
157
157
155
155
155
155
156
157
156
155
155
154
153
151
151
151
151
151
151
151
151
151
151
152
152
154
155
157
158
158
158
158
159
159
157
157
155
155
155
155
155
155
156
158
158
157
157
156
156
155
154
155
155
155
155
156
156
156
157
157
157
156
156
155
155
155
155
154
153
152
152
152
152
152
153
154
155
157
158
157
157
157
155
155
155
155
155
156
156
154
154
152
152
150
150
150
150
151
151
151
152
152
150
152
152
153
155
155
157
158
158
158
158
158
156
156
155
155
155
155
155
155
156
158
158
157
157
156
155
155
154
155
155
155
155
155
156
157
157
157
156
156
156
155
155
155
155
154
153
152
152
152
151
152
153
154
155
157
158
158
157
157
155
155
155
154
155
155
154
153
153
152
151
151
150
150
151
151
151
151
152
151
151
151
151
152
153
154
155
157
158
158
158
158
156
154
153
153
154
154
154
155
157
157
157
156
156
154
154
154
154
155
155
155
155
155
156
158
158
158
157
157
156
155
155
155
155
154
153
152
152
152
151
152
153
154
155
157
158
158
157
157
155
155
154
154
153
152
152
151
151
151
150
150
150
150
150
151
151
151
152
152
152
151
151
152
154
154
155
157
158
158
157
157
155
154
154
153
154
154
154
155
156
156
156
157
156
155
155
154
154
155
155
155
155
156
156
158
159
158
157
157
156
155
155
155
155
153
153
152
152
152
151
152
153
154
155
157
158
158
157
156
156
155
154
153
152
152
151
150
150
150
150
150
149
150
151
151
151
151
152
152
151
150
149
151
153
153
154
156
157
157
156
156
155
154
154
153
153
153
154
154
154
155
156
155
155
155
154
154
154
153
155
156
156
157
157
158
159
159
158
158
156
155
155
155
154
152
152
152
152
152
151
152
153
154
155
157
157
157
157
157
156
155
154
153
150
149
149
149
149
149
149
149
149
149
151
152
152
152
152
152
151
150
150
150
152
153
154
155
156
156
155
155
154
154
154
153
154
153
154
154
154
154
155
154
155
154
155
154
154
154
156
155
155
157
157
158
159
158
158
158
157
155
155
154
153
152
152
152
152
152
151
152
154
154
155
156
157
157
156
157
156
155
154
152
151
150
150
149
150
149
149
149
149
151
151
152
152
152
152
151
150
149
149
149
151
152
152
152
152
152
152
151
152
153
155
155
154
154
154
153
153
152
152
152
154
155
155
155
155
155
155
155
155
157
157
158
159
159
158
158
157
155
153
152
152
151
151
152
153
152
152
153
154
154
154
155
156
156
156
156
156
157
156
154
153
152
150
150
150
149
149
150
151
152
152
152
152
152
152
151
150
149
149
149
151
151
151
152
152
152
152
151
152
153
155
155
154
155
154
153
153
152
152
152
154
155
155
155
155
155
155
155
155
157
157
158
158
158
157
158
157
155
154
152
152
152
152
152
152
153
153
153
154
154
154
155
156
156
156
156
156
156
156
154
153
152
150
150
150
149
149
150
151
152
152
152
152
152
152
151
150
149
149
150
151
150
151
150
151
151
151
151
152
153
153
155
155
155
154
153
153
152
152
152
154
155
155
155
155
154
154
154
155
157
158
158
158
158
157
156
156
155
153
152
152
152
152
153
153
153
153
154
154
154
154
155
156
156
156
156
156
156
155
154
153
152
151
150
150
151
151
150
152
153
153
153
152
152
151
150
149
149
149
150
150
150
150
151
151
151
151
151
152
153
153
155
155
155
154
153
153
152
152
152
154
155
155
155
155
155
154
154
155
157
158
158
158
158
157
157
156
154
153
152
152
151
152
153
153
153
153
154
154
154
154
155
156
156
156
156
156
157
155
154
153
151
152
150
150
151
151
150
152
153
153
153
152
152
151
150
149
149
149
150
151
150
150
150
151
151
151
151
152
153
154
154
155
155
154
153
153
153
153
153
153
155
155
154
153
153
152
153
155
156
157
157
157
157
156
155
154
154
153
152
152
152
153
153
154
154
154
154
154
154
154
154
155
155
155
155
156
156
155
155
155
154
153
152
152
152
152
152
152
152
152
152
152
151
150
150
150
149
149
150
151
150
151
151
151
151
151
151
152
153
154
155
154
154
154
153
153
153
153
153
153
155
155
154
153
153
151
153
155
156
157
157
156
156
155
155
154
153
153
151
152
152
153
154
154
154
154
154
154
154
154
154
155
155
155
155
156
156
156
155
155
155
154
152
152
152
152
152
152
152
152
152
152
151
150
150
150
149
149
151
151
150
151
150
151
151
151
151
152
152
153
153
153
153
153
153
154
154
154
154
154
155
155
154
154
154
153
153
155
156
156
156
156
155
154
154
153
152
152
152
152
152
152
153
153
154
154
154
154
154
154
154
155
155
155
155
156
156
155
155
155
155
155
154
154
153
153
151
152
152
152
151
151
151
150
150
150
149
149
150
150
150
151
150
151
151
150
150
152
153
152
152
153
153
153
153
154
154
155
155
154
155
155
154
153
154
153
154
155
156
156
156
154
155
154
153
153
152
152
152
152
152
153
153
154
154
154
154
154
154
154
155
155
155
155
155
156
156
156
155
155
155
155
154
154
153
153
152
152
152
152
151
151
151
150
150
150
149
149
150
150
150
150
150
150
151
151
151
152
152
152
151
152
153
154
154
154
155
155
155
155
155
155
154
153
153
153
154
155
157
156
157
155
154
153
152
152
152
152
152
153
154
154
155
155
155
154
154
155
155
154
154
154
155
154
155
155
155
154
154
155
155
155
155
154
154
154
153
153
152
152
151
151
151
151
150
150
149
149
150
150
150
151
150
151
151
152
152
152
152
152
152
152
153
154
154
154
155
155
155
155
155
155
153
152
152
153
154
155
157
157
157
155
153
152
152
152
152
151
152
154
153
155
155
155
155
155
155
155
155
154
154
154
154
154
154
154
154
154
154
154
156
155
155
154
154
154
154
154
152
151
151
151
151
150
151
151
149
149
150
151
150
150
150
150
150
151
152
153
153
152
151
152
153
153
153
155
155
155
154
154
154
155
153
153
153
154
155
157
157
157
157
155
153
152
152
152
152
152
153
154
154
155
156
155
155
155
155
155
155
154
154
154
154
154
154
154
154
154
154
154
155
155
155
155
155
154
154
153
152
152
151
150
151
152
152
151
149
149
151
150
150
150
150
149
149
150
152
153
153
152
151
152
152
151
153
154
155
155
154
154
154
154
154
154
154
154
156
157
157
157
157
155
154
152
151
152
151
152
154
155
155
155
156
156
155
154
155
155
155
154
154
154
154
154
153
154
153
153
153
154
154
154
155
155
155
155
154
153
152
152
151
150
151
152
152
151
149
149
150
151
150
150
150
150
150
151
153
153
154
152
152
152
152
152
153
155
155
155
154
154
154
154
154
153
154
154
157
158
157
157
157
155
154
152
151
152
152
152
154
155
155
156
156
156
156
156
156
155
155
154
154
154
154
154
154
154
154
153
153
153
153
155
155
155
156
156
154
154
153
152
151
151
152
153
153
153
149
149
150
151
150
151
151
151
151
151
153
154
154
152
152
152
152
151
153
155
156
156
155
155
154
154
154
153
153
155
157
158
158
158
158
155
154
152
151
152
151
152
155
156
157
156
156
156
156
156
156
156
155
154
154
155
154
154
154
154
154
153
152
151
153
154
155
156
156
156
154
154
153
153
152
151
152
154
154
153
149
149
150
150
150
150
151
151
151
151
152
153
153
151
151
151
151
152
153
155
156
156
155
155
154
153
154
154
154
155
157
158
158
158
158
155
154
152
152
152
152
153
155
157
156
156
156
156
156
156
156
157
156
154
155
154
154
153
153
153
154
153
152
153
154
154
155
155
156
155
154
153
152
152
152
152
152
154
154
153
149
149
150
151
150
150
150
151
150
152
152
153
153
151
151
150
152
152
153
155
155
155
155
155
154
154
154
153
154
155
157
159
159
159
159
156
153
152
152
151
152
154
156
157
157
157
157
156
156
156
156
156
155
155
155
154
154
153
153
153
153
153
154
154
153
154
154
154
155
156
154
153
153
152
152
152
153
155
154
154
149
149
150
150
150
151
150
150
150
150
150
151
151
150
150
150
151
152
152
154
155
154
154
154
153
153
153
154
154
156
157
158
158
158
158
155
154
152
152
152
152
155
156
157
156
156
156
156
156
156
157
157
157
156
155
155
154
154
153
154
154
154
154
154
154
154
154
154
155
155
154
154
153
153
152
152
153
153
153
153
150
150
150
150
150
150
149
150
149
148
148
147
148
148
150
150
151
151
151
153
154
153
152
152
152
151
152
153
155
157
158
158
158
157
156
155
154
152
152
152
153
155
157
156
155
155
154
154
156
158
159
160
159
157
156
155
154
153
153
154
154
155
155
155
155
154
154
154
154
154
153
153
154
154
154
153
153
152
151
150
150
150
149
150
150
150
150
150
149
148
148
148
148
148
150
150
151
151
151
152
153
153
152
152
152
152
152
153
155
157
157
157
157
157
156
155
154
153
153
152
153
155
157
156
155
155
155
154
155
157
158
159
158
157
156
155
155
154
154
154
154
155
155
155
155
154
154
154
154
154
154
154
154
155
155
153
153
152
151
150
150
150
149
149
149
150
150
150
149
148
148
148
148
148
150
150
151
152
152
152
152
152
152
152
152
153
153
154
156
157
157
157
157
157
157
154
154
154
154
153
154
156
157
156
155
155
154
154
155
156
157
158
157
157
156
155
155
154
154
155
155
155
156
155
155
155
154
154
154
154
154
155
155
156
155
153
152
152
150
149
150
150
150
149
150
150
150
150
149
148
148
148
148
148
150
150
151
152
152
152
152
152
152
152
152
152
152
153
156
157
157
157
156
157
156
154
154
154
154
153
154
156
157
156
155
155
154
154
155
156
157
157
157
157
156
155
155
154
154
155
156
156
156
156
155
154
154
154
154
154
154
155
155
156
155
153
153
152
150
149
150
150
150
150
150
150
150
150
149
147
148
148
148
148
149
150
151
152
152
152
152
152
152
152
152
152
153
154
156
156
156
156
155
155
155
154
154
154
154
154
154
156
157
157
156
156
155
155
156
156
157
157
157
157
156
155
155
154
154
156
156
156
156
156
156
155
154
154
155
155
155
155
156
156
155
153
152
152
149
147
150
150
150
150
150
150
150
150
149
148
148
148
148
148
149
150
151
152
152
152
152
152
152
152
152
152
153
154
155
156
156
156
156
155
155
154
154
154
154
153
154
156
157
157
156
156
155
155
156
157
156
157
157
157
156
155
155
155
154
156
156
156
156
156
157
156
154
154
155
155
155
155
156
156
155
153
152
152
149
147
