P2
80 80
255
155
157
150
146
148
148
147
150
151
150
150
148
146
146
144
141
136
130
125
120
121
127
135
136
134
134
139
141
141
141
139
136
131
128
127
127
125
124
121
120
118
113
111
112
116
123
124
125
123
115
110
109
104
 96
 96
104
105
 99
100
109
116
113
110
109
105
100
100
106
115
118
116
115
112
108
105
101
 97
 95
 98
101
156
154
146
143
144
143
143
146
148
147
148
145
143
143
143
141
136
132
124
118
121
127
135
139
138
137
139
141
142
141
140
137
134
132
128
128
126
121
119
122
122
113
106
108
116
122
122
123
120
113
109
110
105
 97
 97
106
108
105
106
115
120
117
112
110
106
103
104
110
117
119
117
112
110
108
105
101
 96
 93
 94
 99
155
150
145
143
143
141
141
145
147
144
145
143
141
142
144
143
139
135
129
123
126
130
136
141
140
139
139
141
143
142
140
138
136
134
131
129
127
122
120
125
124
110
 98
101
113
121
120
120
117
112
110
111
108
100
 99
107
112
112
115
120
122
120
115
113
111
107
108
113
119
119
115
109
106
106
105
102
 95
 90
 91
 95
154
151
148
148
147
144
143
147
147
143
143
141
140
140
142
143
142
139
134
131
131
134
137
139
139
139
139
140
141
140
139
138
136
134
130
128
128
124
122
125
121
104
 90
 94
108
118
118
117
116
112
111
113
109
103
104
109
115
120
122
123
123
123
120
117
116
112
113
116
120
118
113
105
103
104
105
102
 95
 89
 89
 93
153
152
150
151
150
145
144
147
145
141
141
141
139
138
139
140
141
141
139
135
135
136
136
136
137
138
140
140
139
138
136
135
134
131
127
124
124
124
122
120
111
 96
 88
 95
107
115
115
115
115
111
112
115
110
106
109
115
121
125
127
126
126
126
124
122
121
117
116
118
120
116
108
104
103
105
105
102
 94
 89
 91
 95
152
151
151
152
150
145
142
144
142
138
142
141
139
137
136
137
138
140
140
138
138
136
134
133
134
137
140
140
138
135
134
133
131
128
123
118
117
120
122
114
100
 90
 92
101
110
112
110
112
113
111
112
115
110
106
114
120
125
128
129
130
130
128
127
126
125
121
119
119
120
114
106
104
105
106
105
102
 94
 90
 94
 99
151
153
149
149
150
145
142
144
142
136
141
139
135
134
135
136
139
141
139
136
136
135
132
132
133
136
139
137
135
136
134
131
125
119
116
114
118
116
113
110
103
 98
101
106
107
110
108
109
111
112
112
112
113
114
119
124
128
130
130
131
131
130
127
125
122
121
121
121
118
110
102
103
108
110
107
101
 96
 94
 97
 99
154
159
152
150
153
147
141
143
141
133
134
133
131
132
133
135
136
137
135
133
133
133
131
133
134
136
138
138
137
137
135
130
123
117
111
108
113
111
110
111
106
102
104
105
103
108
107
106
109
113
112
112
116
120
123
127
129
131
131
130
129
129
126
123
121
121
122
120
116
108
102
102
108
111
108
101
 96
 95
 98
 98
153
156
151
151
153
146
137
137
135
127
125
127
129
131
131
132
132
132
131
132
131
130
131
134
136
136
136
140
140
134
131
128
125
119
111
103
104
107
112
113
105
100
102
103
101
103
102
103
107
110
112
115
118
122
127
130
132
132
131
130
128
128
125
123
123
122
121
118
113
108
104
104
107
109
106
100
 95
 94
 97
 98
150
147
144
146
148
141
133
131
128
122
121
124
129
130
131
131
130
131
130
130
129
128
131
135
137
137
135
137
135
128
124
125
125
120
112
103
100
106
113
112
105
102
104
102
 98
 99
 98
100
103
107
112
117
122
126
130
132
134
134
131
129
128
127
126
124
124
121
118
115
112
110
110
108
108
109
105
 99
 94
 93
 95
 97
151
145
142
145
147
141
133
130
128
123
119
123
127
128
129
128
129
131
130
127
126
127
130
135
136
136
133
131
129
125
122
122
121
118
112
106
103
109
113
108
106
107
109
104
 95
 95
 96
 97
 99
105
111
119
123
126
129
131
133
133
131
129
128
128
127
125
123
120
115
111
110
112
115
112
111
109
105
 99
 93
 91
 94
 96
151
146
145
147
148
142
135
130
126
122
117
119
122
122
122
124
126
128
128
125
124
126
130
134
134
134
132
129
126
125
122
120
116
114
112
111
112
114
112
106
107
113
113
104
 94
 94
 95
 96
 98
102
110
119
124
126
127
130
131
131
131
129
129
130
127
123
121
117
112
109
110
114
119
117
113
109
105
 99
 93
 91
 94
 97
148
145
146
146
144
139
133
127
122
118
116
117
118
117
119
121
124
125
125
125
124
126
129
132
133
132
132
129
127
125
123
119
116
115
116
117
118
119
114
108
110
116
112
102
 95
 95
 96
 96
 97
100
109
119
124
125
126
128
130
130
129
128
128
129
125
121
119
116
112
111
113
116
120
117
113
108
104
100
 95
 93
 96
100
146
145
146
144
141
139
135
129
124
120
117
117
118
119
121
123
125
125
125
124
124
125
127
129
130
130
131
130
127
123
120
119
120
121
124
126
121
121
118
112
114
116
107
 99
 96
 97
 98
 97
 97
 99
107
117
123
125
126
127
129
128
127
126
126
127
122
118
118
116
115
114
115
117
120
117
111
105
102
101
 98
 96
 99
105
148
146
145
143
142
141
140
136
130
126
122
121
120
121
125
128
128
125
122
122
125
127
127
128
130
131
132
131
129
124
120
118
121
126
128
127
121
119
118
115
116
115
106
 99
 98
 98
 98
 97
 96
100
107
117
122
124
126
126
127
128
126
124
123
124
120
115
115
115
116
116
117
117
117
112
107
103
102
100
 98
100
105
109
147
145
142
140
140
142
142
139
134
130
130
127
124
124
128
134
132
124
118
120
126
129
130
130
132
134
133
131
132
131
124
116
118
125
126
122
121
119
114
113
112
112
109
104
100
100
 98
 96
 96
102
109
117
121
123
123
122
123
126
126
121
118
118
117
115
113
112
114
117
117
116
114
109
102
101
102
 99
 98
105
112
112
147
145
143
141
142
143
144
141
137
134
133
132
128
127
130
134
133
127
121
123
127
130
131
131
133
135
133
132
132
130
125
120
122
126
126
123
122
119
114
111
109
109
107
102
100
102
100
 97
 98
102
109
115
119
120
119
118
120
123
123
119
115
115
116
115
113
113
115
117
118
117
116
116
109
102
100
 99
101
108
113
111
146
146
144
142
142
144
144
142
139
136
135
135
131
127
127
131
131
126
123
125
129
130
131
132
134
134
133
134
133
130
127
127
127
127
126
124
121
116
111
108
108
108
108
106
104
103
101
 99
100
103
108
113
117
117
115
114
116
120
119
115
112
112
115
116
116
116
117
119
118
116
116
120
113
103
100
100
103
111
114
111
146
146
146
142
141
142
142
140
138
136
134
134
130
126
124
125
127
124
123
127
129
131
132
133
134
134
134
135
133
128
130
133
132
128
126
127
118
113
109
106
107
110
112
113
111
106
105
103
102
105
108
113
117
117
112
112
115
117
116
112
111
111
115
118
118
118
118
118
116
115
114
116
111
105
104
103
105
111
115
112
146
146
145
142
141
139
137
136
135
134
135
135
132
126
124
125
127
125
126
129
129
130
130
133
134
132
133
134
132
129
131
136
135
129
127
127
120
114
109
106
107
111
114
116
115
109
108
106
105
105
108
113
117
116
112
112
114
116
114
110
110
112
118
121
118
116
115
116
115
114
113
111
107
106
107
105
105
110
114
114
144
143
142
140
137
135
134
133
133
134
138
138
135
131
129
131
133
131
129
128
127
128
129
131
130
130
131
133
131
130
131
134
134
130
127
127
123
117
112
108
108
111
113
114
113
111
109
107
104
103
106
111
116
117
113
111
112
113
110
108
110
115
120
120
115
112
112
114
114
113
112
108
105
108
111
109
107
111
115
115
142
141
139
137
135
134
133
134
134
135
140
140
137
134
133
136
137
135
132
129
126
125
128
130
128
128
129
130
130
130
131
133
134
131
128
125
122
117
111
108
108
110
111
112
111
110
108
105
101
100
102
108
114
117
113
111
111
111
108
107
110
116
120
117
110
106
108
112
115
115
114
112
110
109
111
110
109
113
116
114
141
138
136
135
134
133
133
135
137
138
139
139
136
134
135
138
140
138
133
128
125
124
127
128
127
126
127
129
130
130
130
131
132
130
128
125
120
114
109
107
108
110
111
112
111
108
106
103
 99
 96
 98
105
113
116
113
111
110
109
106
105
108
117
120
114
106
101
103
111
117
116
115
119
115
109
109
110
112
117
117
114
143
142
136
131
133
138
136
135
137
138
136
138
140
137
135
135
137
135
131
129
128
128
128
128
128
127
128
129
130
127
125
125
126
125
123
122
116
111
107
104
106
108
109
109
108
107
108
104
 98
 96
 97
101
110
114
112
113
110
105
104
107
112
115
113
107
101
 98
100
108
113
115
114
119
115
106
106
112
117
118
116
113
143
142
138
135
137
138
135
133
133
134
134
137
138
136
135
137
139
136
133
131
128
125
123
123
124
126
127
126
126
125
123
122
122
122
122
120
114
110
106
104
105
108
109
109
108
103
101
 94
 89
 91
 97
101
108
112
112
112
110
105
103
107
111
112
108
104
102
101
102
106
110
115
117
118
113
105
106
113
116
117
115
114
141
139
139
140
137
133
131
130
128
128
132
133
133
134
136
140
140
136
133
130
125
120
117
117
119
121
123
121
121
123
122
120
119
122
122
119
114
110
107
106
109
111
112
110
108
104
 96
 83
 77
 86
 98
104
107
112
114
114
112
107
105
106
108
108
103
101
106
107
104
103
107
114
121
118
112
107
107
111
114
116
114
114
141
140
141
140
134
128
125
125
124
125
128
129
132
133
135
136
134
130
127
124
119
116
116
117
116
117
117
116
117
120
121
118
118
121
123
119
114
112
111
111
113
114
113
110
108
109
100
 85
 79
 89
100
106
107
112
116
117
115
110
108
107
106
107
101
 99
106
107
103
101
106
115
122
117
112
109
109
111
113
114
115
115
141
141
140
137
133
128
123
120
119
119
120
125
131
135
134
131
128
127
124
118
113
112
115
117
115
114
115
115
115
117
119
117
116
121
125
120
118
117
116
116
116
116
113
107
106
112
106
 93
 88
 95
104
107
108
114
119
118
118
115
111
108
106
106
103
102
105
103
 99
100
107
116
121
117
114
113
111
111
113
114
115
115
141
140
137
135
135
134
129
121
114
112
113
119
128
134
134
130
128
131
128
117
112
110
111
112
111
114
120
119
113
113
116
115
114
120
124
121
121
120
119
118
117
115
111
105
102
105
104
 97
 94
 99
106
109
112
117
121
119
119
116
113
108
107
108
108
107
105
100
 97
102
111
118
119
117
115
114
111
109
110
112
113
113
140
137
134
132
135
139
138
131
121
113
110
112
120
128
130
129
129
134
130
120
113
111
111
111
109
115
124
124
113
107
111
114
112
117
123
121
120
119
117
115
114
113
108
102
 97
 97
 99
 98
 97
103
108
111
114
120
120
118
117
116
113
108
107
109
110
111
108
102
100
106
116
120
117
116
115
113
109
106
108
110
109
107
138
132
131
128
128
136
147
150
141
126
112
107
109
115
122
125
126
129
128
120
116
115
116
114
109
113
124
127
113
100
106
113
110
114
120
120
118
116
114
112
111
110
105
 99
 96
 96
 98
 97
 97
105
112
114
116
120
119
116
115
113
111
106
105
109
112
112
111
107
105
111
120
122
116
114
113
111
106
103
105
107
106
101
137
131
127
123
122
127
141
151
147
131
109
101
102
109
116
121
123
125
124
120
119
121
121
116
112
115
120
119
108
100
103
108
109
114
119
119
116
111
108
108
110
110
106
100
 97
 98
100
 99
101
106
112
114
117
118
114
113
113
111
109
108
107
110
112
114
115
114
112
115
119
120
117
115
114
112
108
104
104
104
101
 97
135
131
125
121
118
118
126
136
135
121
103
 98
100
107
112
117
124
125
123
121
121
123
120
113
112
117
119
107
 99
101
 99
100
107
113
118
118
115
108
103
104
109
110
107
103
102
100
101
103
104
106
109
114
117
116
111
113
112
110
108
108
110
111
114
116
118
119
118
117
117
119
120
119
117
115
111
107
103
100
 99
 97
128
129
125
121
117
114
117
123
119
110
104
 99
100
105
108
114
121
122
120
121
120
121
117
109
108
115
121
107
 97
 98
 96
 96
102
110
116
116
111
107
104
101
101
102
105
106
106
103
104
104
106
109
111
114
116
116
112
112
110
107
105
107
111
114
117
119
121
122
122
121
121
122
123
121
118
114
108
103
100
 99
100
101
124
126
124
122
118
113
113
114
108
102
104
103
106
108
107
109
114
114
115
118
118
119
115
109
107
111
114
106
102
100
 94
 93
 98
106
112
113
108
105
102
 97
 94
 98
105
111
112
108
108
108
109
111
114
115
115
114
111
109
106
103
103
106
112
117
119
119
122
124
124
123
121
121
122
121
119
114
107
100
 96
 97
101
105
121
122
123
121
118
114
113
112
107
103
106
107
112
113
108
105
109
114
116
116
113
115
115
111
108
107
102
103
110
106
 93
 90
 95
102
109
109
106
104
100
 95
 94
101
112
116
115
112
111
112
112
114
115
115
114
111
107
107
105
103
103
106
112
118
118
118
121
123
123
122
120
119
120
119
117
113
107
100
 95
 97
102
107
121
118
119
118
115
114
114
112
108
107
110
110
114
114
106
102
111
124
124
115
110
109
110
108
107
105
 95
 97
109
105
 90
 87
 93
100
109
108
106
104
 99
 96
 99
110
119
120
117
114
113
113
113
114
116
115
112
107
104
104
104
104
104
107
112
116
118
119
121
123
123
122
120
119
119
117
116
114
108
103
 99
 98
103
106
120
118
119
116
112
112
113
111
108
109
112
111
112
109
103
107
121
132
128
114
106
103
104
103
105
103
 95
 95
107
103
 86
 84
 93
101
111
111
110
107
103
103
108
116
121
119
115
116
114
114
114
115
116
114
110
105
102
103
103
104
105
107
111
115
118
120
122
124
123
121
120
119
120
116
115
113
109
106
102
102
103
105
124
126
126
120
112
111
112
109
108
111
111
113
112
107
105
118
131
128
115
106
101
103
104
102
102
101
 96
 97
111
108
 89
 87
 97
105
115
116
114
110
108
111
115
118
117
115
114
116
114
113
114
116
116
112
108
104
101
102
102
103
104
107
110
114
117
119
121
121
119
117
116
117
117
117
115
113
111
107
105
104
104
105
128
133
132
123
114
114
115
110
106
107
108
114
114
108
110
126
135
119
102
 99
100
105
106
103
101
100
 97
101
116
113
 95
 94
103
110
119
119
117
113
113
116
118
115
112
111
113
114
113
113
114
116
116
112
106
103
101
102
101
101
103
106
110
114
115
115
116
116
114
112
113
114
115
117
115
111
108
107
106
106
106
105
122
128
121
113
114
121
123
115
103
 96
 97
108
113
109
108
119
128
119
110
109
107
105
103
102
102
102
102
106
107
102
100
104
112
118
124
125
119
117
120
120
119
115
110
109
108
110
112
115
117
115
112
107
104
101
 98
 99
 98
 98
101
107
108
106
105
108
110
110
108
108
112
116
118
115
113
111
109
104
102
103
106
109
117
114
109
106
112
121
124
118
106
100
101
106
109
109
109
117
124
120
111
103
100
 98
100
104
104
102
102
102
100
 99
103
109
117
122
124
124
121
120
122
120
116
111
107
103
103
109
111
113
114
113
110
107
104
101
100
 99
 97
 96
 99
105
106
103
101
104
107
106
103
103
108
114
115
114
114
113
109
104
100
102
107
111
114
110
106
106
111
117
117
111
105
102
102
 99
101
105
106
110
115
115
107
 97
 96
 99
103
106
103
101
102
100
 98
101
107
114
120
123
122
119
119
120
120
119
115
109
104
100
101
108
109
110
111
111
109
107
105
104
103
 99
 95
 94
 98
103
103
 99
 98
101
103
103
 99
 98
103
109
112
114
115
114
109
104
 99
101
108
114
116
115
112
109
109
107
104
 99
 99
101
101
 99
102
104
102
102
106
109
104
100
105
108
109
105
102
101
104
102
102
106
112
119
123
122
118
114
114
115
117
117
114
110
106
104
104
110
110
110
109
110
109
109
108
107
104
 99
 93
 93
 98
102
102
 98
 96
 98
100
100
 97
 96
 99
105
111
113
115
115
112
105
100
101
108
115
120
118
113
110
108
104
 98
 96
 97
100
103
107
114
112
103
100
105
109
105
105
112
114
109
103
100
102
104
104
104
109
115
120
123
121
116
112
109
111
114
115
114
112
109
108
109
112
112
110
110
110
112
112
112
110
105
 98
 93
 94
 99
103
103
 99
 97
 98
 99
 99
 98
 97
100
106
112
112
113
117
114
108
102
102
108
114
123
117
113
111
110
108
101
 96
 96
 97
102
113
122
116
102
 99
107
110
105
104
107
106
104
100
100
102
103
101
102
108
114
120
123
120
116
113
109
109
113
114
114
112
110
109
109
114
114
111
110
112
115
115
115
112
106
100
 96
 98
103
106
103
100
 99
 99
 99
 99
101
101
103
108
114
112
114
117
115
110
104
104
108
112
125
120
116
114
113
110
104
 98
 94
 95
101
111
118
111
 99
 99
107
109
105
101
 98
 97
101
100
 97
 97
101
 99
 99
106
112
117
118
117
113
110
107
108
111
113
113
111
109
108
109
115
114
112
112
114
116
117
115
113
109
103
101
104
106
106
103
101
 99
 98
 96
 99
103
106
108
110
114
114
114
117
115
110
105
105
109
112
125
123
117
112
110
109
106
102
 99
101
106
111
113
109
102
105
114
114
107
100
 94
 97
105
103
 92
 90
101
100
 97
105
112
115
115
112
107
103
102
104
107
111
111
110
110
109
110
115
114
111
111
115
117
116
113
113
113
108
107
109
109
107
102
101
100
 97
 94
 98
105
109
111
111
114
115
116
117
113
109
105
107
110
113
125
123
119
113
109
107
107
107
106
105
107
111
113
108
104
106
110
109
104
 98
 96
 97
104
103
 95
 93
105
109
102
101
106
111
110
106
103
101
101
102
105
109
110
108
106
107
109
114
114
113
113
113
115
117
114
111
111
110
109
109
108
106
104
103
 99
 95
 97
101
105
110
111
113
113
115
116
115
112
108
107
107
109
110
127
124
121
117
110
107
109
111
109
106
104
109
112
110
108
107
104
101
 97
 96
 97
 97
100
103
 99
 98
106
116
109
 99
102
106
104
101
103
103
105
104
106
109
108
103
100
101
107
112
116
117
115
114
115
116
114
111
110
110
109
107
105
105
106
107
102
 98
101
103
105
109
111
113
114
115
115
112
110
109
108
108
108
108
131
126
123
119
112
109
110
113
113
109
104
108
112
112
111
111
108
103
 97
 95
 96
 97
100
102
 99
 99
107
115
110
102
103
104
101
100
103
104
106
107
108
109
107
100
 95
 97
104
112
116
119
118
116
115
115
113
111
111
110
107
105
105
105
106
108
107
106
103
102
105
108
111
115
116
115
113
113
109
107
107
106
107
107
134
129
126
122
115
111
112
115
116
111
105
108
112
114
116
115
111
104
100
 98
 98
 99
101
102
 98
 99
108
113
109
104
105
104
 99
 99
101
101
100
102
107
109
106
 99
 96
 98
105
112
117
120
119
117
114
114
112
111
111
108
104
101
101
103
106
108
111
110
106
103
104
109
113
117
117
115
112
111
107
104
104
105
106
108
138
133
130
124
117
112
113
115
115
112
109
111
114
116
119
118
113
108
105
103
103
103
104
102
 99
101
107
109
107
106
108
105
101
100
 99
 96
 91
 94
103
109
107
101
 98
102
109
113
117
120
118
114
112
111
111
111
109
105
101
 97
 97
100
104
108
112
111
107
104
106
111
116
118
118
115
111
107
103
100
100
104
108
110
140
136
133
128
120
114
115
116
114
112
114
115
116
118
119
118
115
113
111
109
108
109
107
102
101
103
107
106
104
106
109
107
103
101
 99
 91
 85
 89
100
109
110
104
101
106
112
115
118
119
115
110
109
111
112
110
105
101
 96
 93
 94
 98
103
108
111
110
107
106
109
113
116
117
116
114
111
105
 99
 97
 99
105
111
113
140
138
136
131
124
119
119
119
117
115
119
117
118
121
121
118
116
116
115
113
111
112
108
103
102
105
107
105
103
106
107
105
102
102
100
 90
 83
 89
100
109
110
106
104
110
116
118
119
119
115
111
111
112
112
109
102
 98
 94
 92
 93
 99
106
111
111
110
109
108
110
112
114
114
113
111
108
103
 98
 97
 99
106
112
115
140
138
137
134
129
125
124
124
121
119
120
119
121
123
123
119
115
117
117
112
110
111
108
101
100
105
107
106
106
106
103
 98
 98
103
103
 93
 85
 88
 98
106
109
108
108
115
123
121
122
121
117
114
114
114
113
107
101
 97
 94
 92
 93
100
108
114
115
113
111
110
110
110
110
110
109
106
104
101
 99
 99
102
106
112
116
139
137
137
135
131
127
128
128
126
123
122
122
124
125
124
118
115
118
118
113
111
112
107
100
100
106
109
109
108
104
100
 96
 97
103
102
 93
 85
 88
 97
104
108
109
113
120
126
123
122
121
119
117
117
116
112
107
101
 97
 95
 95
 96
102
109
116
117
115
114
111
108
106
105
106
108
105
102
100
 99
101
104
109
113
115
140
139
138
135
131
128
127
127
128
127
125
127
127
124
120
118
117
118
116
115
116
112
104
 99
100
105
109
110
105
100
 98
 99
101
101
 94
 88
 86
 92
 99
102
105
111
119
122
123
123
119
116
115
116
117
115
112
108
103
 99
 99
100
101
102
105
114
116
114
114
111
106
101
 99
103
107
106
103
 98
 96
101
108
113
113
112
141
139
138
135
133
131
129
129
129
128
125
126
125
123
120
119
118
114
113
113
113
109
103
100
102
105
107
106
104
 99
 97
 97
 99
 97
 93
 88
 89
 91
 91
 96
103
114
121
123
123
120
117
114
114
115
116
113
110
107
105
103
101
101
101
102
106
112
114
112
112
110
104
101
100
102
105
104
100
 98
 98
103
110
113
113
111
139
138
138
136
135
135
132
131
130
129
127
127
124
121
118
116
114
109
108
111
108
104
102
102
104
104
104
102
100
 99
 97
 96
 95
 93
 90
 87
 93
 90
 85
 90
104
117
123
122
119
115
113
112
112
113
114
112
109
107
108
109
106
102
101
104
108
110
111
111
109
106
103
101
100
101
102
101
 99
 99
101
107
113
114
112
109
138
137
137
137
137
135
134
133
130
131
131
128
124
121
115
109
105
105
109
112
107
103
102
105
107
104
100
 98
 98
 99
 99
 97
 94
 92
 89
 88
 96
 92
 85
 92
108
121
123
121
117
110
110
110
111
113
114
113
111
109
111
112
110
104
101
105
107
107
109
109
106
103
101
100
100
 99
 99
 98
 99
101
105
110
115
114
110
106
137
137
136
136
136
136
136
133
130
128
129
126
123
121
114
104
101
109
115
112
107
104
104
108
108
104
 99
 97
 99
101
103
100
 96
 93
 92
 93
 99
 97
 94
102
114
121
120
118
115
108
107
109
111
113
115
115
113
112
111
113
110
105
102
104
106
105
107
108
104
100
100
100
100
 99
 97
 98
 99
103
109
114
116
114
110
104
137
137
136
135
136
135
133
131
129
127
124
122
120
119
114
106
106
116
119
111
106
104
106
108
107
104
101
 99
102
104
103
101
 98
 97
 98
 99
102
101
103
110
117
120
118
115
113
108
108
109
110
111
112
113
113
112
110
111
109
105
103
103
104
103
104
106
102
100
100
100
100
 98
 97
100
102
105
110
114
115
112
108
104
137
137
136
136
135
134
131
128
128
126
121
120
120
118
114
113
114
118
115
106
103
102
104
106
105
103
102
103
105
104
102
 98
 97
 98
103
107
105
105
109
112
116
119
118
115
111
110
110
109
108
108
107
108
109
109
108
108
107
106
103
102
101
103
104
104
102
100
 99
 99
 99
 98
 97
102
106
108
111
114
113
110
107
105
135
137
137
135
133
132
130
127
126
125
122
124
122
116
115
120
120
113
106
102
100
100
103
103
102
103
106
108
107
104
 99
 95
 95
 99
106
113
108
108
110
111
113
118
121
116
111
113
112
109
106
104
103
104
104
106
106
105
104
106
104
100
 98
102
104
103
103
101
100
 99
 99
 98
 97
104
108
109
111
113
112
109
107
105
137
137
137
135
133
132
130
128
125
124
122
122
120
119
120
122
119
113
107
102
 97
 97
101
103
101
103
108
106
101
 97
 87
 82
 88
102
110
111
108
108
108
111
117
121
116
109
108
110
108
106
104
102
101
100
101
103
105
105
105
106
106
104
102
102
104
104
102
101
101
 98
 95
 97
 98
104
109
112
113
114
111
108
103
102
139
138
138
135
134
134
132
129
126
124
122
120
119
121
123
122
118
114
110
104
 98
 97
100
103
100
100
105
102
 96
 90
 81
 80
 91
105
111
107
105
106
107
111
120
122
112
104
105
105
105
104
104
101
 99
 99
100
102
104
105
106
107
107
106
106
103
105
105
102
102
101
 98
 95
 96
 99
104
108
112
115
114
110
106
101
 99
139
139
139
137
135
135
133
129
125
121
119
120
121
122
124
122
117
114
111
106
 99
 98
101
102
 98
 96
100
101
 95
 86
 82
 87
100
110
110
104
101
105
108
114
120
119
109
102
102
102
105
106
105
102
 99
 99
100
102
106
107
108
110
109
108
106
104
105
105
101
101
102
 98
 95
 97
101
103
107
111
113
112
107
102
 99
 98
139
138
138
137
135
135
133
128
123
119
116
119
121
123
123
120
116
113
111
106
 99
 97
 98
 98
 95
 94
 97
100
 96
 87
 87
 97
108
111
107
103
100
105
111
117
121
116
104
 97
 98
100
105
108
106
102
 99
 99
100
102
106
108
110
111
112
110
107
105
106
105
102
101
100
 96
 93
 95
 99
103
107
112
113
108
101
 95
 93
 93
139
137
137
135
134
133
131
127
123
119
115
118
121
122
121
118
115
112
110
105
 98
 94
 93
 92
 93
 94
 98
102
100
 96
 99
107
111
109
104
103
102
107
115
119
120
113
 99
 93
 94
 99
106
110
107
102
 99
100
100
103
106
109
111
113
112
111
108
105
105
104
100
 98
 95
 93
 90
 92
 97
103
109
112
111
105
 96
 89
 88
 89
139
137
136
134
133
133
131
128
124
122
119
120
121
122
121
118
115
113
110
106
 99
 92
 90
 90
 93
 98
102
106
106
105
110
114
112
106
103
105
105
111
118
121
120
111
 97
 91
 95
101
108
112
108
102
100
102
101
102
107
108
110
112
111
110
107
105
104
101
 97
 94
 92
 89
 87
 89
 94
104
109
109
106
 99
 91
 86
 85
 87
139
137
137
135
133
133
132
131
130
127
124
124
123
123
123
121
118
115
113
108
101
 94
 91
 92
 97
102
107
109
109
112
115
115
109
103
103
106
109
115
119
121
119
111
100
 95
100
105
111
113
107
101
101
103
102
102
106
108
109
111
110
108
107
106
102
 96
 93
 90
 89
 86
 86
 89
 95
103
106
105
100
 94
 88
 86
 86
 87
139
140
138
136
135
135
135
136
136
134
132
128
125
125
125
125
122
118
115
112
105
 99
 95
 95
100
107
110
111
111
113
114
111
106
104
103
104
111
116
119
120
119
113
103
101
106
109
114
114
106
100
103
105
102
101
106
106
108
109
108
107
106
107
100
 93
 88
 86
 87
 86
 87
 91
 99
103
102
 99
 95
 90
 87
 86
 88
 90
138
140
138
136
135
135
136
138
139
137
135
131
129
128
127
126
123
119
115
111
106
100
 98
100
105
109
111
112
114
114
112
108
106
105
106
106
111
116
120
121
119
114
107
106
110
113
114
111
105
100
100
101
 99
101
106
106
107
106
107
107
104
101
 94
 88
 89
 89
 89
 88
 90
 96
101
102
 99
 94
 91
 87
 85
 87
 91
 94
136
136
136
134
133
134
136
137
136
136
135
134
132
131
128
125
121
118
113
108
104
100
101
106
109
111
110
114
117
115
111
107
103
103
107
109
114
118
122
122
117
112
110
110
111
116
112
107
104
101
 95
 92
 94
100
106
108
107
105
106
105
 99
 90
 83
 85
 93
 95
 92
 92
 96
100
101
100
 95
 91
 90
 89
 86
 87
 91
 97
136
132
131
130
130
132
135
137
137
137
136
134
131
130
128
125
121
118
114
110
107
104
105
109
112
114
114
114
113
110
106
103
101
101
105
109
116
118
118
116
113
111
110
110
111
111
109
108
105
100
 95
 92
 93
100
106
105
105
106
104
100
 92
 84
 82
 87
 92
 94
 92
 93
 96
 99
 99
 96
 92
 90
 90
 90
 88
 87
 89
 93
135
129
127
128
129
132
134
136
137
137
137
134
130
128
126
124
120
118
115
111
109
108
109
113
116
117
117
114
111
108
104
100
 99
103
108
112
118
118
115
111
109
108
109
110
110
107
107
106
103
 98
 93
 92
 94
 99
103
100
102
106
104
 97
 88
 82
 84
 88
 91
 93
 93
 95
 98
 99
 98
 93
 90
 90
 92
 91
 89
 88
 89
 92
136
130
128
128
129
130
133
136
137
137
137
134
130
128
125
122
119
117
114
110
110
110
112
116
117
118
118
115
110
107
102
100
102
106
113
116
119
117
112
109
108
108
108
109
107
106
106
106
102
 96
 91
 92
 97
 99
 97
 94
 99
106
106
 97
 89
 87
 89
 91
 92
 93
 96
 98
 99
 98
 96
 92
 91
 91
 93
 92
 91
 91
 93
 95
136
132
130
129
129
131
133
135
136
136
137
133
129
126
123
121
118
116
111
108
109
111
114
117
118
118
116
112
108
104
100
100
102
108
114
118
117
114
111
107
107
108
108
106
105
106
107
106
102
 96
 93
 96
101
102
 98
 94
 97
105
106
 97
 91
 91
 93
 92
 91
 94
 98
101
100
 98
 95
 93
 94
 95
 94
 92
 93
 95
 99
101
135
134
132
131
131
132
135
135
135
135
134
131
128
125
122
120
116
113
109
106
110
113
117
118
117
116
115
110
105
100
 97
 96
100
107
113
117
117
114
111
109
107
107
106
103
103
106
108
107
103
 98
 97
101
105
106
103
 98
 99
104
103
 96
 90
 92
 93
 92
 92
 96
101
102
100
 96
 94
 94
 96
 97
 95
 93
 94
 98
103
106
